HIERARCHY
ROOT Hips
{
	OFFSET 0.000000 0.000000 0.000000
	CHANNELS 6 Xposition Yposition Zposition Xrotation Yrotation Zrotation
	JOINT Spine
	{
		OFFSET 0.000000 0.042231 0.063346
		CHANNELS 3 Xrotation Yrotation Zrotation
		JOINT Spine1
		{
			OFFSET 0.000000 0.014667 0.083179
			CHANNELS 3 Xrotation Yrotation Zrotation
			JOINT Spine2
			{
				OFFSET 0.000000 0.007361 0.084141
				CHANNELS 3 Xrotation Yrotation Zrotation
				JOINT Spine3
				{
					OFFSET 0.000000 0.000000 0.084462
					CHANNELS 3 Xrotation Yrotation Zrotation
					JOINT Neck
					{
						OFFSET 0.000000 -0.031673 0.221713
						CHANNELS 3 Xrotation Yrotation Zrotation
						JOINT Head
						{
							OFFSET 0.000000 -0.020167 0.114371
							CHANNELS 3 Xrotation Yrotation Zrotation
							End Site
							{
								OFFSET 0.000000 0.000000 0.000000
							}
						}
					}
					JOINT RightShoulder
					{
						OFFSET -0.029161 -0.048602 0.157471
						CHANNELS 3 Xrotation Yrotation Zrotation
						JOINT RightArm
						{
							OFFSET -0.144834 0.000000 0.000000
							CHANNELS 3 Xrotation Yrotation Zrotation
							JOINT RightForeArm
							{
								OFFSET -0.274949 0.000000 0.000000
								CHANNELS 3 Xrotation Yrotation Zrotation
								JOINT RightHand
								{
									OFFSET -0.254725 0.000000 0.000000
									CHANNELS 3 Xrotation Yrotation Zrotation
									JOINT RightHandEnd
									{
										OFFSET -0.068160 0.000000 0.000000
										CHANNELS 3 Xrotation Yrotation Zrotation
										End Site
										{
											OFFSET 0.000000 0.000000 0.000000
										}
									}
									JOINT RightHandThumb1
									{
										OFFSET -0.027264 -0.045440 -0.018176
										CHANNELS 3 Xrotation Yrotation Zrotation
										End Site
										{
											OFFSET 0.000000 0.000000 0.000000
										}
									}
								}
							}
						}
					}
					JOINT LeftShoulder
					{
						OFFSET 0.029161 -0.048602 0.157471
						CHANNELS 3 Xrotation Yrotation Zrotation
						JOINT LeftArm
						{
							OFFSET 0.144834 0.000000 0.000000
							CHANNELS 3 Xrotation Yrotation Zrotation
							JOINT LeftForeArm
							{
								OFFSET 0.274949 0.000000 0.000000
								CHANNELS 3 Xrotation Yrotation Zrotation
								JOINT LeftHand
								{
									OFFSET 0.254725 0.000000 0.000000
									CHANNELS 3 Xrotation Yrotation Zrotation
									JOINT LeftHandEnd
									{
										OFFSET 0.068160 0.000000 0.000000
										CHANNELS 3 Xrotation Yrotation Zrotation
										End Site
										{
											OFFSET 0.000000 0.000000 0.000000
										}
									}
									JOINT LeftHandThumb1
									{
										OFFSET 0.027264 -0.045440 -0.018176
										CHANNELS 3 Xrotation Yrotation Zrotation
										End Site
										{
											OFFSET 0.000000 0.000000 0.000000
										}
									}
								}
							}
						}
					}
				}
			}
		}
	}
	JOINT RightUpLeg
	{
		OFFSET -0.086512 0.000000 -0.025273
		CHANNELS 3 Xrotation Yrotation Zrotation
		JOINT RightLeg
		{
			OFFSET 0.000000 0.000000 -0.433119
			CHANNELS 3 Xrotation Yrotation Zrotation
			JOINT RightFoot
			{
				OFFSET 0.000000 0.000000 -0.404688
				CHANNELS 3 Xrotation Yrotation Zrotation
				JOINT RightToeBase
				{
					OFFSET 0.000000 -0.126496 -0.046041
					CHANNELS 3 Xrotation Yrotation Zrotation
					End Site
					{
						OFFSET 0.000000 0.000000 0.000000
					}
				}
			}
		}
	}
	JOINT LeftUpLeg
	{
		OFFSET 0.086512 0.000000 -0.025273
		CHANNELS 3 Xrotation Yrotation Zrotation
		JOINT LeftLeg
		{
			OFFSET 0.000000 0.000000 -0.433119
			CHANNELS 3 Xrotation Yrotation Zrotation
			JOINT LeftFoot
			{
				OFFSET 0.000000 0.000000 -0.404688
				CHANNELS 3 Xrotation Yrotation Zrotation
				JOINT LeftToeBase
				{
					OFFSET 0.000000 -0.126496 -0.046041
					CHANNELS 3 Xrotation Yrotation Zrotation
					End Site
					{
						OFFSET 0.000000 0.000000 0.000000
					}
				}
			}
		}
	}
}
MOTION
Frames: 9
Frame Time: 0.033333
0.248415 1.125444 0.892127 -0.778400 -2.883900 -1.107000 1.740600 3.691300 -0.732300 1.072000 0.446200 -0.000100 2.833500 0.567600 -0.007200 0.754000 -0.198300 0.154200 -4.463900 -1.735000 4.599100 -5.060800 6.198100 8.968500 6.357900 -11.345900 0.910100 45.684300 -39.718900 48.706100 0.000000 0.000000 28.391900 -7.515400 20.354600 -0.130500 0.000000 0.000000 0.000000 0.000000 0.000000 0.000000 12.749900 7.922400 -5.409400 50.666600 23.609300 -55.585000 0.000000 0.000000 -26.948700 -17.743300 -13.704100 -3.631100 0.000000 0.000000 0.000000 0.000000 0.000000 0.000000 -22.458000 7.385300 -11.875000 46.525200 0.000000 0.000000 -6.855100 8.566800 -27.257000 -14.376300 0.000000 0.000000 3.722300 4.480000 24.010300 8.135500 0.000000 0.000000 -14.304500 4.556800 17.416500 0.694000 0.000000 0.000000 
0.251435 1.103526 0.889851 -1.167300 -2.956000 -1.212500 1.954800 3.898300 -0.869100 1.267500 0.517100 -0.032100 2.823600 0.330800 -0.307500 0.765900 -0.196500 0.123100 -4.524300 -1.745600 4.658800 -5.212400 6.266100 9.204600 6.616400 -11.206000 0.799700 46.232200 -39.707100 49.102200 0.000000 0.000000 27.873600 -7.221200 20.095300 -0.252000 0.000000 0.000000 0.000000 0.000000 0.000000 0.000000 12.151200 8.115600 -5.696800 49.109900 24.012500 -55.003100 0.000000 0.000000 -29.153200 -17.308800 -14.613900 -3.779000 0.000000 0.000000 0.000000 0.000000 0.000000 0.000000 -24.011900 7.168400 -12.710700 40.925000 0.000000 0.000000 -6.724000 7.604800 -25.581300 -14.555100 0.000000 0.000000 6.521900 5.069900 25.616900 6.243500 0.000000 0.000000 -14.663500 5.715900 15.922200 0.601700 0.000000 0.000000 
0.254114 1.080346 0.886539 -1.487900 -3.171100 -1.244800 2.128700 4.178600 -1.012100 1.415200 0.594400 -0.069700 2.826100 0.043000 -0.678100 0.791200 -0.212400 0.090400 -4.571400 -1.713300 4.774200 -5.445400 6.332100 9.478800 6.821100 -11.083500 0.716800 47.258000 -38.984700 49.646300 0.000000 0.000000 27.184800 -6.810300 19.761000 -0.283100 0.000000 0.000000 0.000000 0.000000 0.000000 0.000000 11.639800 8.298800 -5.951000 47.469500 24.435900 -54.388800 0.000000 0.000000 -31.335600 -16.464400 -15.550900 -3.723000 0.000000 0.000000 0.000000 0.000000 0.000000 0.000000 -25.011300 7.015900 -13.632900 34.253900 0.000000 0.000000 -6.153400 5.856500 -21.746600 -15.048900 0.000000 0.000000 9.055200 5.722700 26.660800 4.921800 0.000000 0.000000 -15.196600 6.842300 14.976200 0.097000 0.000000 0.000000 
0.256240 1.056096 0.882388 -1.596100 -3.453600 -1.103700 2.208400 4.386900 -1.138200 1.523900 0.660000 -0.101200 2.749800 -0.172200 -1.095500 0.789600 -0.214700 0.042000 -4.596700 -1.755000 4.812100 -5.620100 6.387500 9.781200 7.005300 -11.064600 0.484700 48.238000 -38.231300 50.074600 0.000000 0.000000 26.373300 -6.027500 19.455200 -0.322100 0.000000 0.000000 0.000000 0.000000 0.000000 0.000000 11.236400 8.373300 -6.208700 45.910300 24.709500 -53.870400 0.000000 0.000000 -33.320200 -15.897600 -16.358700 -3.892500 0.000000 0.000000 0.000000 0.000000 0.000000 0.000000 -25.799300 6.885400 -14.761200 27.172800 0.000000 0.000000 -4.796300 4.539800 -16.721400 -15.853700 0.000000 0.000000 11.161400 6.285900 26.833800 4.199600 0.000000 0.000000 -15.899600 7.746500 14.799900 -0.601100 0.000000 0.000000 
0.257934 1.030425 0.877710 -1.701100 -3.837000 -0.891500 2.314500 4.553300 -1.189500 1.631700 0.701500 -0.128800 2.678900 -0.328200 -1.484700 0.772600 -0.201100 -0.009900 -4.703400 -1.820300 4.780400 -5.702700 6.444900 10.019300 7.230800 -11.041000 0.181400 48.721800 -38.070200 50.137000 0.000000 0.000000 25.581300 -5.214500 19.309300 -0.411900 0.000000 0.000000 0.000000 0.000000 0.000000 0.000000 10.849900 8.383200 -6.516000 44.528800 24.960300 -53.393700 0.000000 0.000000 -35.132600 -15.509300 -16.903300 -4.201400 0.000000 0.000000 0.000000 0.000000 0.000000 0.000000 -26.372500 6.841200 -15.677800 20.804900 0.000000 0.000000 -3.217700 3.105500 -11.973900 -15.973700 0.000000 0.000000 13.183600 6.819100 26.257100 3.844800 0.000000 0.000000 -16.642900 8.577400 15.100700 -1.220300 0.000000 0.000000 
0.259016 1.002411 0.872800 -2.132900 -4.412300 -0.597100 2.567700 4.876500 -1.155400 1.821900 0.753000 -0.161100 2.708200 -0.565500 -1.916100 0.785900 -0.206000 -0.061800 -4.890300 -1.816800 4.750600 -5.818400 6.475000 10.146300 7.445900 -10.897500 -0.040700 48.833100 -38.538700 49.876300 0.000000 0.000000 24.879200 -4.987900 19.332400 -0.476500 0.000000 0.000000 0.000000 0.000000 0.000000 0.000000 10.550400 8.338100 -6.849200 43.356600 25.225800 -52.927800 0.000000 0.000000 -36.825200 -15.005200 -17.289700 -4.438700 0.000000 0.000000 0.000000 0.000000 0.000000 0.000000 -26.391500 7.060100 -15.901200 16.859800 0.000000 0.000000 -2.393300 1.869700 -9.529200 -15.184000 0.000000 0.000000 15.458500 7.339900 25.289800 4.058400 0.000000 0.000000 -17.269300 9.437900 15.577700 -2.253900 0.000000 0.000000 
0.258544 0.972292 0.868157 -2.629300 -4.939700 0.103000 2.814700 5.187300 -1.040600 1.982600 0.824200 -0.202400 2.839800 -0.910800 -2.554700 0.814200 -0.234900 -0.121500 -5.106700 -1.799000 4.640100 -5.868400 6.478700 10.149000 7.553300 -10.910400 -0.253800 48.864900 -39.172300 49.369500 0.000000 0.000000 24.191400 -5.261700 19.438200 -0.496200 0.000000 0.000000 0.000000 0.000000 0.000000 0.000000 10.453000 8.259900 -7.182800 42.450500 25.146400 -52.514900 0.000000 0.000000 -38.254700 -14.555000 -17.614600 -4.605900 0.000000 0.000000 0.000000 0.000000 0.000000 0.000000 -26.054200 7.463300 -15.452200 16.668700 0.000000 0.000000 -2.873700 2.536100 -9.866900 -14.880100 0.000000 0.000000 17.422700 7.325500 23.685300 5.516000 0.000000 0.000000 -17.769000 10.033000 16.556800 -4.331100 0.000000 0.000000 
0.256032 0.940669 0.864367 -2.783600 -5.166900 1.382100 2.854500 5.203400 -0.887400 1.993200 0.849100 -0.236700 2.973500 -1.265200 -3.298000 0.814800 -0.249200 -0.201800 -5.342600 -1.819100 4.333600 -5.670400 6.506000 9.968800 7.582000 -11.297600 -0.637600 48.915800 -39.690700 48.719300 0.000000 0.000000 23.384900 -5.398300 19.520900 -0.573200 0.000000 0.000000 0.000000 0.000000 0.000000 0.000000 10.504700 8.211200 -7.451700 41.961000 24.536700 -52.261100 0.000000 0.000000 -39.258400 -14.119100 -17.773700 -4.668000 0.000000 0.000000 0.000000 0.000000 0.000000 0.000000 -25.775600 7.803000 -14.530600 19.570700 0.000000 0.000000 -3.513100 5.184600 -11.445900 -15.486200 0.000000 0.000000 18.437000 6.402500 20.557800 8.407300 0.000000 0.000000 -18.113700 10.537900 18.368700 -7.293300 0.000000 0.000000 
0.251935 0.907781 0.862259 -2.551200 -5.037600 2.719400 2.623300 4.881600 -0.710100 1.780700 0.767400 -0.254300 3.184500 -1.635200 -3.778000 0.796200 -0.243000 -0.248300 -5.716000 -1.742700 3.974300 -5.213100 6.607100 9.563800 7.624400 -11.858200 -1.010200 48.908500 -40.085700 48.035700 0.000000 0.000000 22.365300 -5.298900 19.455800 -0.760800 0.000000 0.000000 0.000000 0.000000 0.000000 0.000000 10.580500 8.356900 -7.544600 41.826800 23.926400 -52.041700 0.000000 0.000000 -39.939500 -13.216200 -17.746400 -4.487200 0.000000 0.000000 0.000000 0.000000 0.000000 0.000000 -25.793300 7.686000 -12.870100 23.521900 0.000000 0.000000 -3.234000 8.282100 -13.136300 -14.920100 0.000000 0.000000 18.199100 4.829100 15.964000 12.859600 0.000000 0.000000 -18.267000 12.057900 20.756700 -10.754200 0.000000 0.000000 
